<?xml version="1.0" encoding="utf-8"?>
<!-- Generator: Adobe Illustrator 28.0.0, SVG Export Plug-In . SVG Version: 6.00 Build 0)  -->
<svg version="1.1" id="Line" xmlns="http://www.w3.org/2000/svg" xmlns:xlink="http://www.w3.org/1999/xlink" x="0px" y="0px"
	 viewBox="0 0 56.4 55.9" style="enable-background:new 0 0 56.4 55.9;" xml:space="preserve">
<style type="text/css">
	.st0{fill:#0C080A;}
	.st1{fill:#D8A7FE;}
	.st2{fill:#FFC999;}
</style>
<g>
	<path class="st0" d="M55.4,49.9L25,19.5l3.3-0.5c1.4-0.2,2.4-1.6,2.1-3c-0.1-0.8-0.6-1.5-1.3-1.9l-6.5-3.3
		c-0.2-0.1-0.3-0.4-0.3-0.6L23.4,3c0.2-1.4-0.8-2.7-2.2-2.9C20.4,0,19.6,0.2,19,0.8L13.8,6c-0.2,0.2-0.5,0.2-0.7,0.1L6.7,2.7
		C5.4,2.1,3.8,2.6,3.2,3.9c-0.4,0.7-0.4,1.6,0,2.3l3.3,6.5c0.1,0.2,0.1,0.5-0.1,0.7l-5.2,5.2c-1,1-1,2.7,0.1,3.7
		c0.6,0.6,1.4,0.8,2.2,0.7l7.2-1.2c0.2,0,0.5,0.1,0.6,0.3l3.3,6.5c0.7,1.3,2.2,1.8,3.5,1.1c0.7-0.4,1.2-1.1,1.4-1.9l0.5-3.3
		l30.4,30.4c1.4,1.4,3.7,1.4,5.1,0C56.8,53.5,56.8,51.3,55.4,49.9z M18.6,20.3l-1.1,7.2c-0.1,0.3-0.4,0.5-0.7,0.5
		c-0.2,0-0.3-0.1-0.4-0.3l-3.3-6.5c-0.5-1-1.6-1.5-2.7-1.4l-7.2,1.1c-0.5,0-0.6-0.3-0.7-0.6c0-0.2,0.1-0.3,0.2-0.4l5.2-5.2
		c0.8-0.8,1-2,0.5-3L5,5.2C4.8,5,4.9,4.6,5.2,4.5c0.2-0.1,0.4-0.1,0.5,0l6.5,3.3c1,0.5,2.2,0.3,3-0.5l5.2-5.2
		C20.6,2,20.9,1.9,21.1,2c0.2,0.1,0.4,0.4,0.3,0.6l-1.2,7.2c-0.2,1.1,0.4,2.2,1.4,2.7l6.5,3.3c0.3,0.2,0.4,0.5,0.2,0.8
		c0.1,0.3-0.1,0.4-0.3,0.4l-7.2,1.1C19.7,18.3,18.8,19.2,18.6,20.3z M20.4,22.1l0.2-1.5c0-0.2,0.2-0.4,0.5-0.5l1.5-0.2l5.9,5.9
		L26.3,28L20.4,22.1z M54,53.5c-0.6,0.6-1.6,0.6-2.2,0L27.7,29.4l2.2-2.2L54,51.3C54.6,51.9,54.6,52.9,54,53.5z"/>
	<path class="st0" d="M28.5,25.8L26.3,28l-5.9-5.9l0.2-1.5c0-0.2,0.2-0.4,0.5-0.5l1.5-0.2L28.5,25.8z"/>
	<path class="st1" d="M54,53.5c-0.6,0.6-1.6,0.6-2.2,0L27.7,29.4l2.2-2.2L54,51.3C54.6,51.9,54.6,52.9,54,53.5z"/>
	<path class="st2" d="M28.4,16.7c0,0.2-0.2,0.3-0.4,0.3l-7.2,1.1c-1.1,0.2-2,1-2.1,2.1l-1.1,7.2c-0.1,0.3-0.4,0.5-0.7,0.5
		c-0.2,0-0.3-0.1-0.4-0.3l-3.3-6.5c-0.5-1-1.6-1.5-2.7-1.4l-7.2,1.1c-0.5,0-0.6-0.3-0.7-0.6c0-0.2,0.1-0.3,0.2-0.4L8,14.6
		c0.8-0.8,1-2,0.5-3L5,5.2C4.8,5,4.9,4.6,5.2,4.5c0.2-0.1,0.4-0.1,0.5,0l6.5,3.3c1,0.5,2.2,0.3,3-0.5l5.2-5.2
		C20.6,2,20.9,1.9,21.1,2c0.2,0.1,0.4,0.4,0.3,0.6l-1.2,7.2c-0.2,1.1,0.4,2.2,1.4,2.7l6.5,3.3C28.5,16.1,28.6,16.4,28.4,16.7z"/>
	<path class="st0" d="M29.1,3.5v1h-1c-0.6,0-1,0.4-1,1s0.4,1,1,1h1v1c0,0.6,0.4,1,1,1s1-0.4,1-1v-1h1c0.6,0,1-0.4,1-1s-0.4-1-1-1h-1
		v-1c0-0.6-0.5-1-1-1C29.5,2.5,29.1,3,29.1,3.5z"/>
	<path class="st0" d="M16.5,38.2v-1h1c0.6,0,1-0.4,1-1s-0.4-1-1-1h-1v-1c0-0.6-0.5-1-1-1s-1,0.4-1,1v1h-1c-0.6,0-1,0.4-1,1
		s0.4,1,1,1h1v1c0,0.6,0.5,1,1,1S16.5,38.8,16.5,38.2z"/>
	<path class="st0" d="M4,31v-1h1c0.6,0,1-0.4,1-1s-0.4-1-1-1H4v-1c0-0.6-0.5-1-1-1s-1,0.4-1,1v1H1c-0.6,0-1,0.4-1,1s0.4,1,1,1h1v1
		c0,0.6,0.5,1,1,1C3.6,32,4,31.6,4,31z"/>
</g>
</svg>
