<svg width="134" height="119" viewBox="0 0 134 119" fill="none" xmlns="http://www.w3.org/2000/svg">
<rect x="0.681885" width="132.523" height="119" fill="#E4C1FF"/>
<path d="M33.1359 35.835C33.7936 35.835 34.2898 36.0514 34.6193 36.3809C34.9486 36.7102 35.1641 37.2058 35.1642 37.8633V41.2441H38.545C39.2028 41.2441 39.699 41.4606 40.0284 41.79C40.3577 42.1194 40.5733 42.615 40.5734 43.2725C40.5734 43.9301 40.3578 44.4264 40.0284 44.7559C39.699 45.0853 39.2028 45.3008 38.545 45.3008H35.1642V48.6816C35.1642 49.3394 34.9487 49.8356 34.6193 50.165C34.2898 50.4944 33.7935 50.71 33.1359 50.71C32.4784 50.7099 31.9828 50.4943 31.6534 50.165C31.324 49.8356 31.1075 49.3394 31.1075 48.6816V45.3008H27.7267C27.0693 45.3007 26.5736 45.0852 26.2443 44.7559C25.9148 44.4264 25.6984 43.9302 25.6984 43.2725C25.6984 42.615 25.9149 42.1194 26.2443 41.79C26.5736 41.4607 27.0692 41.2442 27.7267 41.2441H31.1075V37.8633C31.1076 37.2058 31.3241 36.7102 31.6534 36.3809C31.9828 36.0515 32.4784 35.835 33.1359 35.835Z" stroke="black" stroke-width="1.35227"/>
<path d="M68.2951 11.494C68.9528 11.494 69.4491 11.7105 69.7785 12.0399C70.1078 12.3693 70.3233 12.8649 70.3234 13.5223V16.9032H73.7043C74.362 16.9032 74.8583 17.1197 75.1877 17.4491C75.5169 17.7785 75.7325 18.2741 75.7326 18.9315C75.7326 19.5892 75.5171 20.0855 75.1877 20.4149C74.8583 20.7443 74.362 20.9598 73.7043 20.9598H70.3234V24.3407C70.3234 24.9984 70.1079 25.4947 69.7785 25.8241C69.4491 26.1535 68.9528 26.369 68.2951 26.369C67.6377 26.3689 67.142 26.1534 66.8127 25.8241C66.4833 25.4947 66.2668 24.9984 66.2668 24.3407V20.9598H62.8859C62.2285 20.9597 61.7329 20.7442 61.4035 20.4149C61.0741 20.0855 60.8576 19.5892 60.8576 18.9315C60.8577 18.274 61.0742 17.7785 61.4035 17.4491C61.7329 17.1197 62.2284 16.9033 62.8859 16.9032H66.2668V13.5223C66.2669 12.8648 66.4833 12.3693 66.8127 12.0399C67.142 11.7106 67.6376 11.4941 68.2951 11.494Z" stroke="black" stroke-width="1.35227"/>
<path d="M108.863 27.7213C109.521 27.7213 110.017 27.9378 110.347 28.2672C110.676 28.5966 110.891 29.0922 110.892 29.7496V33.1305H114.272C114.93 33.1305 115.426 33.347 115.756 33.6764C116.085 34.0058 116.301 34.5014 116.301 35.1588C116.301 35.8165 116.085 36.3128 115.756 36.6422C115.426 36.9716 114.93 37.1871 114.272 37.1871H110.892V40.568C110.892 41.2257 110.676 41.722 110.347 42.0514C110.017 42.3808 109.521 42.5963 108.863 42.5963C108.206 42.5962 107.71 42.3807 107.381 42.0514C107.051 41.722 106.835 41.2257 106.835 40.568V37.1871H103.454C102.797 37.187 102.301 36.9715 101.972 36.6422C101.642 36.3128 101.426 35.8165 101.426 35.1588C101.426 34.5013 101.642 34.0058 101.972 33.6764C102.301 33.347 102.797 33.1306 103.454 33.1305H106.835V29.7496C106.835 29.0921 107.051 28.5966 107.381 28.2672C107.71 27.9379 108.206 27.7214 108.863 27.7213Z" stroke="black" stroke-width="1.35227"/>
<path d="M101.562 63.1342C101.608 63.1289 101.654 63.1236 101.702 63.1337C89.2617 34.6909 67.3514 38.6897 67.1074 38.7332C66.9384 38.7527 66.7782 38.849 66.6695 38.986L33.2488 78.6655L101.393 63.1537L101.562 63.1342ZM59.7377 67.5049C57.3205 67.7828 55.129 66.0434 54.851 63.6262C54.573 61.2091 56.3124 59.0176 58.7296 58.7396C61.1467 58.4616 63.3383 60.201 63.6163 62.6182C63.8943 65.0353 62.1548 67.2269 59.7377 67.5049ZM80.4175 60.5916C77.0326 60.9809 73.9612 58.5445 73.5719 55.1596C73.1826 51.7747 75.6205 48.7032 79.0054 48.3139C82.3903 47.9246 85.4604 50.3627 85.8496 53.7476C86.2389 57.1325 83.8024 60.2023 80.4175 60.5916Z" fill="black"/>
<path d="M102.275 64.8034C102.092 64.6738 101.864 64.6302 101.655 64.68L31.8713 80.5518C31.4875 80.6385 31.2299 81.0025 31.275 81.3941L32.5861 92.7941C32.6349 93.2187 33.018 93.5228 33.4426 93.474C36.5019 93.1221 39.2757 95.3237 39.6275 98.383C39.9794 101.442 37.7778 104.216 34.7185 104.568C34.2939 104.617 33.9898 105 34.0387 105.424L34.7877 111.938C34.8128 112.155 34.9298 112.353 35.1085 112.48C35.2643 112.591 35.4552 112.639 35.6443 112.617C35.6713 112.614 35.6981 112.61 35.7248 112.604L105.534 96.948C105.92 96.861 106.178 96.4984 106.133 96.1053L102.595 65.3457C102.57 65.1282 102.453 64.9303 102.275 64.8034ZM52.5864 102.788C50.1708 103.066 47.979 101.325 47.7011 98.9078C47.4231 96.4907 49.1625 94.2991 51.5782 94.0213C53.9953 93.7433 56.1884 95.4826 56.4664 97.8997C56.7443 100.317 55.0036 102.51 52.5864 102.788ZM64.0942 88.2309C61.6786 88.5087 59.487 86.7693 59.209 84.3521C58.931 81.935 60.6705 79.7434 63.0861 79.4656C65.5033 79.1876 67.6948 80.9271 67.9728 83.3442C68.2508 85.7613 66.5113 87.9529 64.0942 88.2309ZM87.4352 90.9874C84.0504 91.3767 80.979 88.9403 80.5897 85.5554C80.2004 82.1705 82.6385 79.1005 86.0234 78.7112C89.4083 78.3219 92.4781 80.7585 92.8674 84.1434C93.2567 87.5283 90.8201 90.5981 87.4352 90.9874Z" fill="black"/>
</svg>
