<svg width="49" height="44" viewBox="0 0 49 44" fill="none" xmlns="http://www.w3.org/2000/svg">
<rect width="49" height="44" fill="#EDE0F7"/>
<path d="M12 13.25C12.2432 13.25 12.426 13.3303 12.5479 13.4521C12.6697 13.574 12.75 13.7568 12.75 14V15.25H14C14.2432 15.25 14.426 15.3303 14.5479 15.4521C14.6697 15.574 14.75 15.7568 14.75 16C14.75 16.2432 14.6697 16.426 14.5479 16.5479C14.426 16.6697 14.2432 16.75 14 16.75H12.75V18C12.75 18.2432 12.6697 18.426 12.5479 18.5479C12.426 18.6697 12.2432 18.75 12 18.75C11.7568 18.75 11.574 18.6697 11.4521 18.5479C11.3303 18.426 11.25 18.2432 11.25 18V16.75H10C9.75681 16.75 9.57395 16.6697 9.45215 16.5479C9.33034 16.426 9.25 16.2432 9.25 16C9.25 15.7568 9.33034 15.574 9.45215 15.4521C9.57395 15.3303 9.75681 15.25 10 15.25H11.25V14C11.25 13.7568 11.3303 13.574 11.4521 13.4521C11.574 13.3303 11.7568 13.25 12 13.25Z" stroke="black" stroke-width="0.5"/>
<path d="M25 4.25C25.2432 4.25 25.426 4.33034 25.5479 4.45215C25.6697 4.57395 25.75 4.75681 25.75 5V6.25H27C27.2432 6.25 27.426 6.33034 27.5479 6.45215C27.6697 6.57395 27.75 6.75681 27.75 7C27.75 7.24319 27.6697 7.42605 27.5479 7.54785C27.426 7.66966 27.2432 7.75 27 7.75H25.75V9C25.75 9.24319 25.6697 9.42605 25.5479 9.54785C25.426 9.66966 25.2432 9.75 25 9.75C24.7568 9.75 24.574 9.66966 24.4521 9.54785C24.3303 9.42605 24.25 9.24319 24.25 9V7.75H23C22.7568 7.75 22.574 7.66966 22.4521 7.54785C22.3303 7.42605 22.25 7.24319 22.25 7C22.25 6.75681 22.3303 6.57395 22.4521 6.45215C22.574 6.33034 22.7568 6.25 23 6.25H24.25V5C24.25 4.75681 24.3303 4.57395 24.4521 4.45215C24.574 4.33034 24.7568 4.25 25 4.25Z" stroke="black" stroke-width="0.5"/>
<path d="M40 10.25C40.2432 10.25 40.426 10.3303 40.5479 10.4521C40.6697 10.574 40.75 10.7568 40.75 11V12.25H42C42.2432 12.25 42.426 12.3303 42.5479 12.4521C42.6697 12.574 42.75 12.7568 42.75 13C42.75 13.2432 42.6697 13.426 42.5479 13.5479C42.426 13.6697 42.2432 13.75 42 13.75H40.75V15C40.75 15.2432 40.6697 15.426 40.5479 15.5479C40.426 15.6697 40.2432 15.75 40 15.75C39.7568 15.75 39.574 15.6697 39.4521 15.5479C39.3303 15.426 39.25 15.2432 39.25 15V13.75H38C37.7568 13.75 37.574 13.6697 37.4521 13.5479C37.3303 13.426 37.25 13.2432 37.25 13C37.25 12.7568 37.3303 12.574 37.4521 12.4521C37.574 12.3303 37.7568 12.25 38 12.25H39.25V11C39.25 10.7568 39.3303 10.574 39.4521 10.4521C39.574 10.3303 39.7568 10.25 40 10.25Z" stroke="black" stroke-width="0.5"/>
<path d="M37.3002 23.3437C37.3173 23.3417 37.3343 23.3398 37.352 23.3435C32.7522 12.8268 24.651 14.3054 24.5607 14.3215C24.4983 14.3287 24.439 14.3643 24.3988 14.4149L12.0416 29.0864L37.2377 23.3509L37.3002 23.3437ZM21.8358 24.9597C20.9421 25.0625 20.1317 24.4194 20.0289 23.5256C19.9262 22.6319 20.5693 21.8216 21.4631 21.7188C22.3568 21.616 23.1671 22.2592 23.2699 23.1529C23.3727 24.0466 22.7295 24.8569 21.8358 24.9597ZM29.4821 22.4036C28.2306 22.5475 27.0949 21.6467 26.951 20.3951C26.807 19.1436 27.7084 18.0079 28.96 17.8639C30.2116 17.72 31.3467 18.6215 31.4906 19.873C31.6346 21.1246 30.7337 22.2596 29.4821 22.4036Z" fill="black"/>
<path d="M37.5637 23.9609C37.4964 23.913 37.4119 23.8968 37.3348 23.9153L11.5323 29.7838C11.3904 29.8159 11.2952 29.9505 11.3118 30.0953L11.7966 34.3104C11.8146 34.4674 11.9563 34.5798 12.1133 34.5618C13.2445 34.4317 14.2701 35.2457 14.4002 36.3769C14.5302 37.508 13.7162 38.5336 12.5851 38.6637C12.4281 38.6818 12.3156 38.8234 12.3337 38.9804L12.6107 41.3887C12.6199 41.4691 12.6632 41.5423 12.7293 41.5892C12.7868 41.6303 12.8575 41.6481 12.9274 41.64C12.9373 41.6389 12.9473 41.6372 12.9571 41.6349L38.7688 35.8463C38.9118 35.8141 39.0071 35.68 38.9904 35.5347L37.6824 24.1614C37.6731 24.081 37.6298 24.0078 37.5637 23.9609ZM19.1917 38.0056C18.2985 38.1084 17.4881 37.4646 17.3853 36.5709C17.2825 35.6772 17.9257 34.8669 18.8189 34.7641C19.7126 34.6613 20.5235 35.3044 20.6263 36.1982C20.7291 37.0919 20.0854 37.9028 19.1917 38.0056ZM23.4467 32.6231C22.5535 32.7259 21.7432 32.0827 21.6404 31.189C21.5376 30.2952 22.1807 29.4849 23.0739 29.3822C23.9677 29.2794 24.778 29.9226 24.8808 30.8163C24.9836 31.71 24.3404 32.5204 23.4467 32.6231ZM32.077 33.6424C30.8254 33.7863 29.6898 32.8854 29.5458 31.6339C29.4019 30.3823 30.3034 29.2472 31.5549 29.1033C32.8065 28.9593 33.9416 29.8602 34.0855 31.1118C34.2294 32.3633 33.3285 33.4984 32.077 33.6424Z" fill="black"/>
</svg>
