<?xml version="1.0" encoding="utf-8"?>
<!-- Generator: Adobe Illustrator 28.0.0, SVG Export Plug-In . SVG Version: 6.00 Build 0)  -->
<svg version="1.1" id="Layer_2_00000150103115062399379440000012486174173841177262_"
	 xmlns="http://www.w3.org/2000/svg" xmlns:xlink="http://www.w3.org/1999/xlink" x="0px" y="0px" viewBox="0 0 1364.5 209.8"
	 style="enable-background:new 0 0 1364.5 209.8;" xml:space="preserve">
<style type="text/css">
	.st0{fill:#FFF0DC;}
</style>
<g>
	<path class="st0" d="M1364.5,209.8H0c0.1-51.9,99.9-93.9,223-93.9c33.5,0,65.2,3.1,93.7,8.7C348.5,93.9,391.8,75,439.6,75
		c17.2,0,33.8,2.4,49.5,7C534.7,32,604.3,0,682.4,0c78,0,147.7,32,193.2,82c15.6-4.5,32.2-7,49.3-7c47.7,0,91.1,18.9,122.9,49.6
		c28.5-5.6,60.2-8.7,93.7-8.7C1264.6,115.9,1364.4,158,1364.5,209.8z"/>
</g>
</svg>
