<svg width="133" height="119" viewBox="0 0 133 119" fill="none" xmlns="http://www.w3.org/2000/svg">
<rect x="0.340942" width="132.523" height="119" fill="#E4C1FF"/>
<path d="M27.3859 19.6075C28.0436 19.6075 28.5398 19.824 28.8693 20.1534C29.1986 20.4828 29.4141 20.9784 29.4142 21.6359V25.0167H32.795C33.4528 25.0167 33.949 25.2332 34.2784 25.5626C34.6077 25.892 34.8233 26.3876 34.8234 27.045C34.8234 27.7027 34.6078 28.199 34.2784 28.5284C33.949 28.8579 33.4528 29.0734 32.795 29.0734H29.4142V32.4542C29.4142 33.1119 29.1987 33.6082 28.8693 33.9376C28.5398 34.267 28.0435 34.4825 27.3859 34.4825C26.7284 34.4825 26.2328 34.2669 25.9034 33.9376C25.574 33.6082 25.3575 33.1119 25.3575 32.4542V29.0734H21.9767C21.3193 29.0733 20.8236 28.8577 20.4943 28.5284C20.1648 28.199 19.9484 27.7028 19.9484 27.045C19.9484 26.3875 20.1649 25.892 20.4943 25.5626C20.8236 25.2333 21.3192 25.0168 21.9767 25.0167H25.3575V21.6359C25.3576 20.9784 25.5741 20.4828 25.9034 20.1534C26.2328 19.8241 26.7284 19.6076 27.3859 19.6075Z" stroke="black" stroke-width="1.35227"/>
<path d="M105.818 19.6075C106.475 19.6075 106.972 19.824 107.301 20.1534C107.63 20.4828 107.846 20.9784 107.846 21.6359V25.0167H111.227C111.885 25.0167 112.381 25.2332 112.71 25.5626C113.04 25.892 113.255 26.3876 113.255 27.045C113.255 27.7027 113.04 28.199 112.71 28.5284C112.381 28.8579 111.885 29.0734 111.227 29.0734H107.846V32.4542C107.846 33.1119 107.631 33.6082 107.301 33.9376C106.972 34.267 106.475 34.4825 105.818 34.4825C105.16 34.4825 104.665 34.2669 104.335 33.9376C104.006 33.6082 103.789 33.1119 103.789 32.4542V29.0734H100.409C99.7511 29.0733 99.2554 28.8577 98.9261 28.5284C98.5967 28.199 98.3802 27.7028 98.3802 27.045C98.3803 26.3875 98.5967 25.892 98.9261 25.5626C99.2554 25.2333 99.751 25.0168 100.409 25.0167H103.789V21.6359C103.789 20.9784 104.006 20.4828 104.335 20.1534C104.665 19.8241 105.16 19.6076 105.818 19.6075Z" stroke="black" stroke-width="1.35227"/>
<path d="M50.1208 79.0842L52.7312 106.321H50.3601C49.0447 106.321 47.9124 105.37 47.6843 104.03V104.029L43.4275 79.0842H50.1208ZM90.7527 79.0842L86.4958 104.029C86.2664 105.37 85.1342 106.32 83.821 106.321H81.449L84.0603 79.0842H90.7527ZM78.1511 79.0842L75.5408 106.321H70.031V79.0842H78.1511ZM64.1472 79.0842L64.1482 106.321H58.6384L56.0281 79.0842H64.1472ZM67.0916 31.8577C78.3199 31.8579 87.4861 41.1098 87.4861 52.511C87.4863 54.1323 88.7888 55.4707 90.4265 55.4709H93.5388C98.3344 55.4709 102.266 59.4258 102.266 64.3176C102.266 69.209 98.3335 73.1642 93.5378 73.1643H40.6433C35.8478 73.1643 31.9169 69.2093 31.9167 64.3176C31.9167 59.4258 35.8477 55.4709 40.6433 55.4709H43.7556C45.3934 55.4709 46.6959 54.1324 46.696 52.511C46.696 41.1082 55.863 31.8577 67.0916 31.8577Z" fill="black" stroke="black" stroke-width="2.70455"/>
<path d="M62.778 14.7006C63.5512 14.7006 64.2152 14.9796 64.7147 15.2844C64.7147 15.2844 67.9269 7.14341 68.4206 6.03391C68.9143 4.92441 69.636 5.5306 69.3954 6.03391C69.1549 6.53722 65.6895 15.4629 65.6895 15.4629C66.2159 15.0968 67.0065 14.7016 67.9327 14.7006C69.024 14.7135 70.0513 15.2726 70.9847 16.3628C72.702 18.3681 72.2579 22.0049 70.8365 24.3628C69.7808 26.1143 68.3566 27.0454 66.8366 27.0454C66.3439 27.0454 65.8406 26.9476 65.3368 26.7476C63.2789 27.5621 61.2349 26.682 59.8367 24.3628C58.4153 22.0049 57.9712 18.3681 59.6885 16.3628C60.6224 15.2726 61.6492 14.7129 62.7405 14.7006H62.778Z" fill="black"/>
</svg>
