<svg width="49" height="44" viewBox="0 0 49 44" fill="none" xmlns="http://www.w3.org/2000/svg">
<rect width="49" height="44" fill="#FFF0DC"/>
<path d="M10 7.25C10.2432 7.25 10.426 7.33034 10.5479 7.45215C10.6697 7.57395 10.75 7.75681 10.75 8V9.25H12C12.2432 9.25 12.426 9.33034 12.5479 9.45215C12.6697 9.57395 12.75 9.75681 12.75 10C12.75 10.2432 12.6697 10.426 12.5479 10.5479C12.426 10.6697 12.2432 10.75 12 10.75H10.75V12C10.75 12.2432 10.6697 12.426 10.5479 12.5479C10.426 12.6697 10.2432 12.75 10 12.75C9.75681 12.75 9.57395 12.6697 9.45215 12.5479C9.33034 12.426 9.25 12.2432 9.25 12V10.75H8C7.75681 10.75 7.57395 10.6697 7.45215 10.5479C7.33034 10.426 7.25 10.2432 7.25 10C7.25 9.75681 7.33034 9.57395 7.45215 9.45215C7.57395 9.33034 7.75681 9.25 8 9.25H9.25V8C9.25 7.75681 9.33034 7.57395 9.45215 7.45215C9.57395 7.33034 9.75681 7.25 10 7.25Z" stroke="black" stroke-width="0.5"/>
<path d="M39 7.25C39.2432 7.25 39.426 7.33034 39.5479 7.45215C39.6697 7.57395 39.75 7.75681 39.75 8V9.25H41C41.2432 9.25 41.426 9.33034 41.5479 9.45215C41.6697 9.57395 41.75 9.75681 41.75 10C41.75 10.2432 41.6697 10.426 41.5479 10.5479C41.426 10.6697 41.2432 10.75 41 10.75H39.75V12C39.75 12.2432 39.6697 12.426 39.5479 12.5479C39.426 12.6697 39.2432 12.75 39 12.75C38.7568 12.75 38.574 12.6697 38.4521 12.5479C38.3303 12.426 38.25 12.2432 38.25 12V10.75H37C36.7568 10.75 36.574 10.6697 36.4521 10.5479C36.3303 10.426 36.25 10.2432 36.25 10C36.25 9.75681 36.3303 9.57395 36.4521 9.45215C36.574 9.33034 36.7568 9.25 37 9.25H38.25V8C38.25 7.75681 38.3303 7.57395 38.4521 7.45215C38.574 7.33034 38.7568 7.25 39 7.25Z" stroke="black" stroke-width="0.5"/>
<path d="M18.4053 29.2413L19.3711 39.3116H18.4941C18.0079 39.3115 17.5893 38.9603 17.5049 38.4649L15.9307 29.2413H18.4053ZM33.4297 29.2413L31.8555 38.4639C31.7706 38.96 31.3518 39.3116 30.8662 39.3116H29.9902L30.9551 29.2413H33.4297ZM28.7695 29.2413L27.8047 39.3116H25.7676V29.2413H28.7695ZM23.5918 29.2413L23.5928 39.3116H21.5557L20.5908 29.2413H23.5918ZM24.6807 11.7794C28.8324 11.7794 32.2217 15.2005 32.2217 19.4161C32.2219 20.0153 32.7033 20.5096 33.3086 20.5098H34.46C36.2331 20.5099 37.6865 21.9726 37.6865 23.7813C37.6864 25.5899 36.2322 27.0518 34.459 27.0518H14.9014C13.1284 27.0517 11.6749 25.5899 11.6748 23.7813C11.6748 21.9726 13.1283 20.51 14.9014 20.5098H16.0527C16.6581 20.5096 17.1394 20.0154 17.1396 19.4161C17.1396 15.1999 20.529 11.7794 24.6807 11.7794Z" fill="black" stroke="black"/>
<path d="M23.086 5.43552C23.3719 5.43552 23.6174 5.53868 23.802 5.65139C23.802 5.65139 24.9898 2.64127 25.1723 2.23104C25.3548 1.8208 25.6217 2.04494 25.5327 2.23104C25.4438 2.41714 24.1625 5.71738 24.1625 5.71738C24.3571 5.58202 24.6494 5.43592 24.9919 5.43552C25.3954 5.44029 25.7752 5.64702 26.1204 6.05013C26.7553 6.79156 26.5911 8.13628 26.0656 9.00811C25.6752 9.65572 25.1486 10 24.5866 10C24.4044 10 24.2183 9.96382 24.0321 9.88988C23.2712 10.191 22.5154 9.86563 21.9984 9.00811C21.4729 8.13628 21.3086 6.79156 21.9436 6.05013C22.2889 5.64702 22.6686 5.44009 23.0721 5.43552H23.086Z" fill="black"/>
</svg>
