<svg width="49" height="44" viewBox="0 0 49 44" fill="none" xmlns="http://www.w3.org/2000/svg">
<rect width="49" height="44" fill="#EDE0F7"/>
<path d="M7 18.25C7.24319 18.25 7.42605 18.3303 7.54785 18.4521C7.66966 18.574 7.75 18.7568 7.75 19V20.25H9C9.24319 20.25 9.42605 20.3303 9.54785 20.4521C9.66966 20.574 9.75 20.7568 9.75 21C9.75 21.2432 9.66966 21.426 9.54785 21.5479C9.42605 21.6697 9.24319 21.75 9 21.75H7.75V23C7.75 23.2432 7.66966 23.426 7.54785 23.5479C7.42605 23.6697 7.24319 23.75 7 23.75C6.75681 23.75 6.57395 23.6697 6.45215 23.5479C6.33034 23.426 6.25 23.2432 6.25 23V21.75H5C4.75681 21.75 4.57395 21.6697 4.45215 21.5479C4.33034 21.426 4.25 21.2432 4.25 21C4.25 20.7568 4.33034 20.574 4.45215 20.4521C4.57395 20.3303 4.75681 20.25 5 20.25H6.25V19C6.25 18.7568 6.33034 18.574 6.45215 18.4521C6.57395 18.3303 6.75681 18.25 7 18.25Z" stroke="#1B1B1B" stroke-width="0.5"/>
<path d="M40 4.25C40.2432 4.25 40.426 4.33034 40.5479 4.45215C40.6697 4.57395 40.75 4.75681 40.75 5V6.25H42C42.2432 6.25 42.426 6.33034 42.5479 6.45215C42.6697 6.57395 42.75 6.75681 42.75 7C42.75 7.24319 42.6697 7.42605 42.5479 7.54785C42.426 7.66966 42.2432 7.75 42 7.75H40.75V9C40.75 9.24319 40.6697 9.42605 40.5479 9.54785C40.426 9.66966 40.2432 9.75 40 9.75C39.7568 9.75 39.574 9.66966 39.4521 9.54785C39.3303 9.42605 39.25 9.24319 39.25 9V7.75H38C37.7568 7.75 37.574 7.66966 37.4521 7.54785C37.3303 7.42605 37.25 7.24319 37.25 7C37.25 6.75681 37.3303 6.57395 37.4521 6.45215C37.574 6.33034 37.7568 6.25 38 6.25H39.25V5C39.25 4.75681 39.3303 4.57395 39.4521 4.45215C39.574 4.33034 39.7568 4.25 40 4.25Z" stroke="black" stroke-width="0.5"/>
<path d="M33.5141 13.6C33.6795 11.8651 32.6565 10.3178 31.0101 10.3L25.0008 10.3V8.65C25.0008 8.34751 25.2261 8.1 25.5016 8.1H28.0055C28.2809 8.1 28.5063 7.85249 28.5063 7.55C28.5063 7.24751 28.2809 7 28.0055 7H25.5016C24.6753 7 23.9992 7.74249 23.9992 8.65V10.3H17.9898C16.3434 10.3178 15.3203 11.8654 15.4859 13.6C12.4428 13.6738 12.0778 18.3954 15.0352 19.05C15.3941 22.8255 16.4272 33.5975 16.8029 37.536C16.9382 38.944 18.0098 40 19.2918 40H29.7081C30.9902 40 32.0618 38.944 32.197 37.536C32.5468 33.8764 33.6381 22.5162 33.9648 19.05C36.9242 18.3941 36.5549 13.6728 33.5141 13.6ZM27.0039 11.4C27.0039 11.7025 26.7785 11.95 26.5031 11.95H22.4968C22.2214 11.95 21.9961 11.7025 21.9961 11.4H27.0039ZM20.9945 37.25C18.3466 37.1608 18.3472 32.9387 20.9945 32.85C23.6424 32.9391 23.6418 37.1613 20.9945 37.25ZM21.9961 31.2C19.3482 31.1108 19.3488 26.8887 21.9961 26.8C24.644 26.8891 24.6433 31.1113 21.9961 31.2ZM27.0039 35.05C24.356 34.9608 24.3566 30.7387 27.0039 30.65C29.6518 30.7391 29.6512 34.9613 27.0039 35.05ZM29.007 29C26.3592 28.9108 26.3598 24.6887 29.0071 24.6C31.6549 24.6891 31.6543 28.9113 29.007 29ZM30.4793 21.85C29.5629 21.806 28.8869 22.345 28.1056 22.983C26.3369 24.6448 23.9739 25.2294 21.8108 23.7254C20.2996 22.5812 18.0903 22.7906 16.5125 24.0005C16.4365 23.2007 16.1244 19.9597 16.0417 19.1H32.9582C32.8757 19.9699 32.6678 22.1526 32.5826 22.994C31.8815 22.2735 31.1805 21.894 30.4793 21.85Z" fill="black"/>
</svg>
