<svg width="133" height="119" viewBox="0 0 133 119" fill="none" xmlns="http://www.w3.org/2000/svg">
<rect width="132.523" height="119" fill="#E4C1FF"/>
<path d="M18.9314 49.3577C19.5891 49.3577 20.0854 49.5741 20.4148 49.9036C20.7441 50.2329 20.9596 50.7286 20.9597 51.386V54.7668H24.3406C24.9983 54.7668 25.4945 54.9833 25.824 55.3127C26.1532 55.6421 26.3688 56.1377 26.3689 56.7952C26.3689 57.4528 26.1534 57.9491 25.824 58.2786C25.4945 58.608 24.9983 58.8235 24.3406 58.8235H20.9597V62.2043C20.9597 62.8621 20.7442 63.3583 20.4148 63.6877C20.0854 64.0171 19.5891 64.2327 18.9314 64.2327C18.274 64.2326 17.7783 64.017 17.449 63.6877C17.1195 63.3583 16.9031 62.8621 16.9031 62.2043V58.8235H13.5222C12.8648 58.8234 12.3691 58.6079 12.0398 58.2786C11.7104 57.9491 11.4939 57.4529 11.4939 56.7952C11.494 56.1377 11.7105 55.6421 12.0398 55.3127C12.3691 54.9834 12.8647 54.7669 13.5222 54.7668H16.9031V51.386C16.9032 50.7285 17.1196 50.2329 17.449 49.9036C17.7783 49.5742 18.2739 49.3577 18.9314 49.3577Z" stroke="#1B1B1B" stroke-width="1.35227"/>
<path d="M108.181 11.494C108.839 11.494 109.335 11.7105 109.665 12.0399C109.994 12.3693 110.21 12.8649 110.21 13.5223V16.9032H113.591C114.248 16.9032 114.745 17.1197 115.074 17.4491C115.403 17.7785 115.619 18.2741 115.619 18.9315C115.619 19.5892 115.403 20.0855 115.074 20.4149C114.745 20.7443 114.248 20.9598 113.591 20.9598H110.21V24.3407C110.21 24.9984 109.994 25.4947 109.665 25.8241C109.335 26.1535 108.839 26.369 108.181 26.369C107.524 26.3689 107.028 26.1534 106.699 25.8241C106.37 25.4947 106.153 24.9984 106.153 24.3407V20.9598H102.772C102.115 20.9597 101.619 20.7442 101.29 20.4149C100.96 20.0855 100.744 19.5892 100.744 18.9315C100.744 18.274 100.96 17.7785 101.29 17.4491C101.619 17.1197 102.115 16.9033 102.772 16.9032H106.153V13.5223C106.153 12.8648 106.37 12.3693 106.699 12.0399C107.028 11.7106 107.524 11.4941 108.181 11.494Z" stroke="black" stroke-width="1.35227"/>
<path d="M90.6404 36.7819C91.0876 32.0897 88.321 27.905 83.8683 27.8569L67.6157 27.8569V23.3944C67.6157 22.5763 68.2252 21.9069 68.9701 21.9069H75.742C76.4869 21.9069 77.0964 21.2375 77.0964 20.4194C77.0964 19.6013 76.4869 18.9319 75.742 18.9319H68.9701C66.7354 18.9319 64.9069 20.94 64.9069 23.3944V27.8569H48.6542C44.2015 27.9049 41.4345 32.0907 41.8822 36.7819C33.6521 36.9814 32.665 49.7511 40.6632 51.5218C41.634 61.7327 44.4282 90.8661 45.4443 101.518C45.81 105.326 48.7084 108.182 52.1756 108.182H80.347C83.8143 108.182 86.7127 105.326 87.0783 101.518C88.0242 91.6204 90.9757 60.8962 91.8594 51.5218C99.863 49.7478 98.8644 36.9787 90.6404 36.7819ZM73.0333 30.8319C73.0333 31.65 72.4238 32.3194 71.6789 32.3194H60.8437C60.0988 32.3194 59.4893 31.65 59.4893 30.8319H73.0333ZM56.7805 100.744C49.6192 100.503 49.6209 89.0843 56.7806 88.8444C63.9419 89.0854 63.9402 100.504 56.7805 100.744ZM59.4893 84.3819C52.328 84.1408 52.3296 72.7218 59.4894 72.4819C66.6507 72.7229 66.649 84.142 59.4893 84.3819ZM73.0333 94.7944C65.8719 94.5533 65.8736 83.1343 73.0334 82.8944C80.1946 83.1354 80.1929 94.5545 73.0333 94.7944ZM78.4508 78.4319C71.2895 78.1908 71.2912 66.7718 78.4509 66.5319C85.6122 66.7729 85.6105 78.192 78.4508 78.4319ZM82.4327 59.0944C79.9542 58.9754 78.1258 60.4331 76.0129 62.1586C71.2294 66.6531 64.8385 68.2341 58.9882 64.1664C54.9012 61.0719 48.926 61.6383 44.6587 64.9105C44.4532 62.7473 43.6092 53.982 43.3856 51.6569H89.137C88.9137 54.0097 88.3516 59.9128 88.1212 62.1883C86.225 60.2397 84.3289 59.2133 82.4327 59.0944Z" fill="black"/>
</svg>
