<svg width="133" height="119" viewBox="0 0 133 119" fill="none" xmlns="http://www.w3.org/2000/svg">
<rect x="0.0227051" width="132.523" height="119" fill="#E4C1FF"/>
<path d="M14.6914 90.7101L17.3161 94.647C21.4718 100.771 28.0334 104.927 35.4699 106.021C55.1547 109.083 75.0583 109.083 94.7431 106.021C102.18 104.927 108.741 100.771 112.897 94.647L115.303 90.7101C81.8386 96.6155 48.1556 96.6155 14.6914 90.7101Z" fill="black"/>
<path d="M47.4004 49.2231C50.4101 49.401 53.5968 48.3337 56.0754 45.6655C60.1473 41.5742 60.6784 35.3484 57.3147 31.9687C53.9509 28.5889 47.7545 29.1226 43.6826 33.2138C41.204 35.7042 39.9647 39.0839 40.1417 41.93C40.3188 42.9973 39.9647 44.2424 39.0795 44.9539L15.3561 66.8332C13.2316 68.7899 12.8775 72.1697 14.825 74.1263C16.7724 76.2609 20.3132 76.2609 22.2607 74.1263L44.2137 50.1125C45.0989 49.401 46.1611 49.0452 47.4004 49.2231Z" fill="black"/>
<path d="M117.441 66.5235L91.783 43.0224C94.5321 40.2684 94.5321 35.6784 91.783 32.9243L84.452 25.5803C82.8025 23.9278 79.8701 23.9278 78.2206 25.5803L86.468 37.8816L76.2046 29.9867C75.4715 29.4359 74.1886 29.4359 73.4555 30.1703C72.7224 30.9047 72.7224 32.0063 73.2722 32.9243L81.153 43.206L68.8736 34.944C67.2242 36.5964 67.2242 39.534 68.8736 41.1864L76.2046 48.5305C78.9537 51.2845 83.5356 51.2845 86.2847 48.5305L109.927 74.0512C111.943 76.2544 115.425 76.2544 117.441 74.2348C119.457 72.2152 119.641 68.5431 117.441 66.5235Z" fill="black"/>
<path d="M31.7516 85.8981C31.3142 86.773 30.8767 87.8666 30.658 88.7415C42.0315 90.0538 53.6236 90.9287 64.9971 90.9287C76.3706 90.9287 87.9628 90.2725 99.3362 88.7415C98.8988 87.8666 98.6801 86.773 98.2426 85.8981C92.3372 72.9936 79.4327 64.4635 64.9971 64.4635C50.5616 64.4635 37.6571 72.9936 31.7516 85.8981ZM47.4995 84.5858C47.4995 85.0232 47.2808 85.4607 46.8433 85.6794L44.6561 87.8666C44.2187 88.304 43.7812 88.5227 43.1251 88.5227C42.4689 88.5227 42.0315 88.304 41.594 87.8666C40.7191 86.9917 40.7191 85.6794 41.594 84.8045C41.594 84.8045 41.594 84.8045 41.594 84.5858L43.7812 82.3986C44.6561 81.5237 45.9684 81.5237 46.8433 82.3986C47.4995 83.0547 47.4995 83.9296 47.4995 84.5858ZM60.6227 75.3995H58.4355C57.3419 75.3995 56.2483 74.3059 56.2483 73.2123C56.2483 72.1187 57.3419 71.0251 58.4355 71.0251H60.6227C61.7163 71.0251 62.8099 72.1187 62.8099 73.2123C62.8099 74.3059 61.7163 75.3995 60.6227 75.3995ZM83.1509 84.8045L85.3381 82.6173C86.213 81.7424 87.5253 81.7424 88.4002 82.6173C89.0564 83.2735 89.2751 84.1483 88.8376 85.0232C88.8376 85.2419 88.6189 85.4607 88.4002 85.6794L86.213 87.8666C85.7756 88.304 85.3381 88.5227 84.6819 88.5227C84.0258 88.5227 83.5883 88.304 83.1509 87.8666C82.276 86.9917 82.276 85.6794 83.1509 84.8045ZM72.2149 76.0557C73.0898 75.1808 74.4021 75.1808 75.277 76.0557L77.4642 78.2429C78.3391 79.1178 78.3391 80.4301 77.4642 81.305C77.0267 81.7424 76.5893 81.9611 75.9331 81.9611C75.277 81.9611 74.8395 81.7424 74.4021 81.305L72.2149 79.1178C71.34 78.2429 71.34 76.9306 72.2149 76.0557ZM67.1843 84.1483V86.3355C67.1843 87.4291 66.0907 88.5227 64.9971 88.5227C63.9035 88.5227 62.8099 87.4291 62.8099 86.3355V84.1483C62.8099 83.0547 63.9035 81.9611 64.9971 81.9611C66.0907 81.9611 67.1843 83.0547 67.1843 84.1483Z" fill="black"/>
<path d="M24.3633 22.3121C25.0211 22.3121 25.5173 22.5286 25.8467 22.858C26.176 23.1874 26.3916 23.683 26.3917 24.3405V27.7213H29.7725C30.4302 27.7213 30.9265 27.9378 31.2559 28.2672C31.5852 28.5966 31.8008 29.0922 31.8008 29.7496C31.8008 30.4073 31.5853 30.9036 31.2559 31.233C30.9265 31.5625 30.4302 31.778 29.7725 31.778H26.3917V35.1588C26.3917 35.8165 26.1762 36.3128 25.8467 36.6422C25.5173 36.9716 25.021 37.1871 24.3633 37.1871C23.7059 37.1871 23.2103 36.9715 22.8809 36.6422C22.5515 36.3128 22.335 35.8165 22.335 35.1588V31.778H18.9542C18.2967 31.7779 17.8011 31.5623 17.4717 31.233C17.1423 30.9036 16.9258 30.4073 16.9258 29.7496C16.9259 29.0921 17.1424 28.5966 17.4717 28.2672C17.8011 27.9379 18.2967 27.7214 18.9542 27.7213H22.335V24.3405C22.3351 23.683 22.5516 23.1874 22.8809 22.858C23.2103 22.5287 23.7058 22.3122 24.3633 22.3121Z" stroke="black" stroke-width="1.35227"/>
<path d="M110.909 22.3121C111.567 22.3121 112.063 22.5286 112.392 22.858C112.722 23.1874 112.937 23.683 112.937 24.3405V27.7213H116.318C116.976 27.7213 117.472 27.9378 117.801 28.2672C118.131 28.5966 118.346 29.0922 118.346 29.7496C118.346 30.4073 118.131 30.9036 117.801 31.233C117.472 31.5625 116.976 31.778 116.318 31.778H112.937V35.1588C112.937 35.8165 112.722 36.3128 112.392 36.6422C112.063 36.9716 111.566 37.1871 110.909 37.1871C110.251 37.1871 109.756 36.9715 109.426 36.6422C109.097 36.3128 108.88 35.8165 108.88 35.1588V31.778H105.5C104.842 31.7779 104.347 31.5623 104.017 31.233C103.688 30.9036 103.471 30.4073 103.471 29.7496C103.471 29.0921 103.688 28.5966 104.017 28.2672C104.347 27.9379 104.842 27.7214 105.5 27.7213H108.88V24.3405C108.881 23.683 109.097 23.1874 109.426 22.858C109.756 22.5287 110.251 22.3122 110.909 22.3121Z" stroke="black" stroke-width="1.35227"/>
<path d="M64.9315 8.78943C65.5892 8.78943 66.0854 9.0059 66.4149 9.33533C66.7442 9.66468 66.9597 10.1603 66.9598 10.8177V14.1986H70.3406C70.9984 14.1986 71.4946 14.4151 71.824 14.7445C72.1533 15.0739 72.3689 15.5695 72.369 16.2269C72.369 16.8846 72.1534 17.3809 71.824 17.7103C71.4946 18.0398 70.9984 18.2552 70.3406 18.2552H66.9598V21.6361C66.9598 22.2938 66.7443 22.7901 66.4149 23.1195C66.0854 23.4489 65.5891 23.6644 64.9315 23.6644C64.274 23.6644 63.7784 23.4488 63.449 23.1195C63.1196 22.7901 62.9031 22.2938 62.9031 21.6361V18.2552H59.5223C58.8648 18.2552 58.3692 18.0396 58.0399 17.7103C57.7104 17.3809 57.494 16.8846 57.494 16.2269C57.494 15.5694 57.7105 15.0739 58.0399 14.7445C58.3692 14.4152 58.8648 14.1987 59.5223 14.1986H62.9031V10.8177C62.9032 10.1603 63.1197 9.66468 63.449 9.33533C63.7784 9.00598 64.274 8.78951 64.9315 8.78943Z" stroke="black" stroke-width="1.35227"/>
</svg>
