<svg width="49" height="44" viewBox="0 0 49 44" fill="none" xmlns="http://www.w3.org/2000/svg">
<rect width="49" height="44" fill="#FFF0DC"/>
<path d="M5.42371 33.5399L6.39416 34.9955C7.93072 37.2599 10.3569 38.7965 13.1065 39.2009C20.3849 40.3331 27.7442 40.3331 35.0226 39.2009C37.7723 38.7965 40.1984 37.2599 41.735 34.9955L42.6246 33.5399C30.2512 35.7234 17.797 35.7234 5.42371 33.5399Z" fill="black"/>
<path d="M17.5177 18.2001C18.6306 18.2659 19.8089 17.8713 20.7253 16.8847C22.2309 15.372 22.4273 13.07 21.1835 11.8203C19.9398 10.5707 17.6487 10.768 16.1431 12.2807C15.2266 13.2015 14.7684 14.4512 14.8339 15.5035C14.8993 15.8981 14.7684 16.3585 14.4411 16.6216L5.66943 24.7115C4.8839 25.4349 4.75298 26.6846 5.47304 27.4081C6.19311 28.1973 7.50231 28.1973 8.22238 27.4081L16.3395 18.529C16.6668 18.2659 17.0595 18.1344 17.5177 18.2001Z" fill="black"/>
<path d="M43.4152 24.5969L33.9281 15.9074C34.9446 14.8892 34.9446 13.192 33.9281 12.1737L31.2175 9.45823C30.6076 8.84726 29.5233 8.84726 28.9135 9.45823L31.9629 14.0066L28.168 11.0875C27.897 10.8838 27.4226 10.8838 27.1516 11.1554C26.8805 11.4269 26.8805 11.8343 27.0838 12.1737L29.9977 15.9753L25.4574 12.9204C24.8475 13.5314 24.8475 14.6176 25.4574 15.2286L28.168 17.944C29.1845 18.9623 30.8786 18.9623 31.8951 17.944L40.6369 27.3803C41.3823 28.1949 42.6698 28.1949 43.4152 27.4481C44.1607 26.7014 44.2284 25.3437 43.4152 24.5969Z" fill="black"/>
<path d="M11.7316 31.7607C11.5699 32.0841 11.4081 32.4885 11.3273 32.812C15.5326 33.2972 19.8188 33.6207 24.0241 33.6207C28.2294 33.6207 32.5156 33.3781 36.7209 32.812C36.5592 32.4885 36.4783 32.0841 36.3165 31.7607C34.133 26.9893 29.3616 23.8353 24.0241 23.8353C18.6866 23.8353 13.9152 26.9893 11.7316 31.7607ZM17.5544 31.2754C17.5544 31.4372 17.4735 31.5989 17.3118 31.6798L16.503 32.4885C16.3413 32.6503 16.1796 32.7311 15.9369 32.7311C15.6943 32.7311 15.5326 32.6503 15.3708 32.4885C15.0474 32.165 15.0474 31.6798 15.3708 31.3563C15.3708 31.3563 15.3708 31.3563 15.3708 31.2754L16.1796 30.4667C16.503 30.1432 16.9883 30.1432 17.3118 30.4667C17.5544 30.7093 17.5544 31.0328 17.5544 31.2754ZM22.4067 27.8788H21.5979C21.1936 27.8788 20.7892 27.4745 20.7892 27.0701C20.7892 26.6658 21.1936 26.2614 21.5979 26.2614H22.4067C22.811 26.2614 23.2154 26.6658 23.2154 27.0701C23.2154 27.4745 22.811 27.8788 22.4067 27.8788ZM30.7364 31.3563L31.5451 30.5476C31.8686 30.2241 32.3538 30.2241 32.6773 30.5476C32.9199 30.7902 33.0008 31.1137 32.8391 31.4372C32.8391 31.5181 32.7582 31.5989 32.6773 31.6798L31.8686 32.4885C31.7069 32.6503 31.5451 32.7311 31.3025 32.7311C31.0599 32.7311 30.8982 32.6503 30.7364 32.4885C30.4129 32.165 30.4129 31.6798 30.7364 31.3563ZM26.6928 28.1215C27.0163 27.798 27.5016 27.798 27.825 28.1215L28.6338 28.9302C28.9572 29.2536 28.9572 29.7389 28.6338 30.0624C28.472 30.2241 28.3103 30.305 28.0677 30.305C27.825 30.305 27.6633 30.2241 27.5016 30.0624L26.6928 29.2537C26.3694 28.9302 26.3694 28.4449 26.6928 28.1215ZM24.8328 31.1137V31.9224C24.8328 32.3268 24.4284 32.7311 24.0241 32.7311C23.6197 32.7311 23.2154 32.3268 23.2154 31.9224V31.1137C23.2154 30.7093 23.6197 30.305 24.0241 30.305C24.4284 30.305 24.8328 30.7093 24.8328 31.1137Z" fill="black"/>
<path d="M9 8.25C9.24319 8.25 9.42605 8.33034 9.54785 8.45215C9.66966 8.57395 9.75 8.75681 9.75 9V10.25H11C11.2432 10.25 11.426 10.3303 11.5479 10.4521C11.6697 10.574 11.75 10.7568 11.75 11C11.75 11.2432 11.6697 11.426 11.5479 11.5479C11.426 11.6697 11.2432 11.75 11 11.75H9.75V13C9.75 13.2432 9.66966 13.426 9.54785 13.5479C9.42605 13.6697 9.24319 13.75 9 13.75C8.75681 13.75 8.57395 13.6697 8.45215 13.5479C8.33034 13.426 8.25 13.2432 8.25 13V11.75H7C6.75681 11.75 6.57395 11.6697 6.45215 11.5479C6.33034 11.426 6.25 11.2432 6.25 11C6.25 10.7568 6.33034 10.574 6.45215 10.4521C6.57395 10.3303 6.75681 10.25 7 10.25H8.25V9C8.25 8.75681 8.33034 8.57395 8.45215 8.45215C8.57395 8.33034 8.75681 8.25 9 8.25Z" stroke="black" stroke-width="0.5"/>
<path d="M41 8.25C41.2432 8.25 41.426 8.33034 41.5479 8.45215C41.6697 8.57395 41.75 8.75681 41.75 9V10.25H43C43.2432 10.25 43.426 10.3303 43.5479 10.4521C43.6697 10.574 43.75 10.7568 43.75 11C43.75 11.2432 43.6697 11.426 43.5479 11.5479C43.426 11.6697 43.2432 11.75 43 11.75H41.75V13C41.75 13.2432 41.6697 13.426 41.5479 13.5479C41.426 13.6697 41.2432 13.75 41 13.75C40.7568 13.75 40.574 13.6697 40.4521 13.5479C40.3303 13.426 40.25 13.2432 40.25 13V11.75H39C38.7568 11.75 38.574 11.6697 38.4521 11.5479C38.3303 11.426 38.25 11.2432 38.25 11C38.25 10.7568 38.3303 10.574 38.4521 10.4521C38.574 10.3303 38.7568 10.25 39 10.25H40.25V9C40.25 8.75681 40.3303 8.57395 40.4521 8.45215C40.574 8.33034 40.7568 8.25 41 8.25Z" stroke="black" stroke-width="0.5"/>
<path d="M24 3.25C24.2432 3.25 24.426 3.33034 24.5479 3.45215C24.6697 3.57395 24.75 3.75681 24.75 4V5.25H26C26.2432 5.25 26.426 5.33034 26.5479 5.45215C26.6697 5.57395 26.75 5.75681 26.75 6C26.75 6.24319 26.6697 6.42605 26.5479 6.54785C26.426 6.66966 26.2432 6.75 26 6.75H24.75V8C24.75 8.24319 24.6697 8.42605 24.5479 8.54785C24.426 8.66966 24.2432 8.75 24 8.75C23.7568 8.75 23.574 8.66966 23.4521 8.54785C23.3303 8.42605 23.25 8.24319 23.25 8V6.75H22C21.7568 6.75 21.574 6.66966 21.4521 6.54785C21.3303 6.42605 21.25 6.24319 21.25 6C21.25 5.75681 21.3303 5.57395 21.4521 5.45215C21.574 5.33034 21.7568 5.25 22 5.25H23.25V4C23.25 3.75681 23.3303 3.57395 23.4521 3.45215C23.574 3.33034 23.7568 3.25 24 3.25Z" stroke="black" stroke-width="0.5"/>
</svg>
